<?xml version="1.0" standalone="no"?>
<!DOCTYPE svg PUBLIC "-//W3C//DTD SVG 20010904//EN"
 "http://www.w3.org/TR/2001/REC-SVG-20010904/DTD/svg10.dtd">
<svg version="1.0" xmlns="http://www.w3.org/2000/svg"
 width="20.000000pt" height="15.000000pt" viewBox="0 0 1600.000000 1600.000000"
 preserveAspectRatio="xMidYMid meet">

<g transform="translate(0.000000,1600.000000) scale(0.100000,-0.100000)"
fill="#000000" stroke="none">
<path d="M7500 8983 l0 -5018 -1069 1069 c-588 588 -1073 1067 -1078 1065 -6
-2 -168 -159 -362 -349 l-351 -345 1680 -1680 1680 -1680 1680 1680 1680 1680
-351 345 c-194 190 -356 347 -362 349 -5 2 -490 -477 -1078 -1065 l-1069
-1069 0 5018 0 5017 -500 0 -500 0 0 -5017z"/>
</g>
</svg>
