<?xml version="1.0" standalone="no"?>
<!DOCTYPE svg PUBLIC "-//W3C//DTD SVG 20010904//EN"
 "http://www.w3.org/TR/2001/REC-SVG-20010904/DTD/svg10.dtd">
<svg version="1.0" xmlns="http://www.w3.org/2000/svg"
 width="1600.000000pt" height="1600.000000pt" viewBox="0 0 1600.000000 1600.000000"
 preserveAspectRatio="xMidYMid meet">

<g transform="translate(0.000000,1600.000000) scale(0.100000,-0.100000)"
fill="#000000" stroke="none">
<path d="M12145 13979 c-83 -8 -179 -39 -255 -82 -109 -62 -184 -151 -407
-482 -116 -170 -343 -506 -505 -745 -421 -622 -1685 -2486 -3058 -4510 -651
-960 -1268 -1871 -1373 -2025 -104 -154 -192 -282 -194 -285 -2 -2 -569 561
-1261 1251 -1348 1346 -1301 1302 -1452 1350 -43 14 -103 23 -175 26 -133 6
-200 -8 -325 -68 -85 -41 -88 -44 -631 -588 -547 -546 -547 -546 -587 -631
-104 -218 -89 -464 39 -655 35 -51 564 -586 1996 -2016 2097 -2095 1990 -1993
2198 -2097 230 -114 483 -152 679 -102 172 44 356 158 493 304 50 53 414 582
1278 1858 665 980 1603 2364 2084 3073 481 710 1196 1765 1589 2345 394 580
913 1346 1154 1701 241 356 451 674 468 707 41 83 61 178 61 286 -1 112 -19
186 -72 295 -71 144 -111 177 -743 606 -307 209 -590 397 -629 417 -106 56
-239 80 -372 67z"/>
</g>
</svg>
