<?xml version="1.0" standalone="no"?>
<!DOCTYPE svg PUBLIC "-//W3C//DTD SVG 20010904//EN"
 "http://www.w3.org/TR/2001/REC-SVG-20010904/DTD/svg10.dtd">
<svg version="1.0" xmlns="http://www.w3.org/2000/svg"
 width="236.000000pt" height="304.000000pt" viewBox="0 0 236.000000 304.000000"
 preserveAspectRatio="xMidYMid meet">

<g transform="translate(0.000000,304.000000) scale(0.100000,-0.100000)"
fill="#000000" stroke="none">
<path d="M975 2950 c-239 -28 -591 -203 -718 -358 -44 -53 -126 -216 -137
-271 -4 -20 -15 -64 -24 -98 -15 -55 -16 -86 -7 -260 6 -109 17 -234 25 -278
11 -63 55 -228 77 -291 2 -6 -9 -22 -25 -36 l-30 -25 17 -45 c10 -24 32 -59
51 -77 31 -30 33 -35 24 -68 -10 -38 -3 -100 17 -149 8 -19 33 -45 64 -65 28
-19 51 -41 51 -49 0 -9 5 -21 11 -27 11 -11 10 -62 -6 -294 l-5 -86 44 -39
c24 -21 61 -51 82 -67 22 -15 71 -52 109 -82 138 -107 170 -129 249 -171 122
-64 167 -74 332 -74 95 0 154 5 181 14 42 15 160 84 208 123 17 13 58 43 92
66 57 39 122 88 200 152 25 21 33 35 33 60 0 19 5 46 11 62 7 17 11 91 11 188
l-1 160 48 27 c40 22 55 38 80 89 26 53 31 73 31 137 0 66 3 78 29 111 53 67
65 101 51 138 -15 44 -14 190 4 278 7 39 26 111 41 160 36 118 45 282 21 382
-8 37 -22 107 -30 154 -8 47 -21 102 -29 121 -16 38 -127 136 -262 231 -44 31
-87 63 -96 71 -8 9 -49 31 -90 51 -40 19 -95 46 -120 60 -85 47 -227 76 -394
80 -82 2 -181 0 -220 -5z m245 -30 c0 -5 -13 -10 -30 -10 -23 0 -33 -7 -46
-32 -9 -18 -23 -37 -31 -41 -11 -7 -11 -12 -2 -23 19 -23 39 -17 39 12 0 42
17 64 51 64 17 0 32 6 35 15 13 33 104 3 104 -34 0 -10 30 -24 37 -17 3 2 -1
14 -7 26 -6 12 -10 23 -8 25 5 5 112 -21 166 -41 43 -16 56 -34 25 -34 -10 0
-37 -9 -60 -20 l-43 -19 0 -65 c0 -62 -1 -66 -25 -72 -14 -3 -39 -4 -55 0 -20
4 -30 1 -31 -7 0 -6 -4 -34 -8 -60 -9 -56 7 -60 25 -6 10 30 16 35 57 41 25 3
51 9 56 13 6 3 11 37 11 74 0 75 3 78 83 97 15 3 29 10 32 15 12 18 65 -27 76
-63 12 -46 29 -50 29 -8 0 28 2 30 21 19 12 -6 24 -19 26 -30 3 -10 9 -16 14
-13 10 6 99 -53 99 -65 0 -5 -13 -11 -30 -14 -16 -4 -30 -12 -30 -18 0 -8 19
-9 63 -5 l62 7 64 -53 c106 -87 140 -122 146 -148 4 -21 -2 -29 -38 -52 -32
-20 -57 -49 -93 -110 -54 -92 -71 -155 -81 -293 -5 -89 -5 -91 41 -207 50
-126 54 -152 31 -185 -25 -36 9 -128 79 -212 20 -24 36 -49 36 -57 0 -42 -203
-204 -256 -204 -32 0 -94 26 -94 39 0 6 11 11 25 11 17 0 29 8 37 25 6 14 9
27 6 30 -8 9 -77 -38 -78 -53 0 -9 -12 -6 -39 10 -32 18 -43 20 -62 11 -23
-10 -23 -11 -4 -17 40 -13 105 -49 105 -57 0 -5 -12 -9 -27 -9 -16 0 -41 -7
-57 -15 -26 -14 -31 -14 -46 0 -9 8 -19 12 -23 9 -3 -3 -11 4 -17 16 -8 16
-15 19 -23 11 -7 -7 -3 -22 15 -49 31 -45 48 -102 48 -155 0 -65 -56 -60 -62
6 -5 48 -23 29 -21 -20 2 -24 0 -43 -5 -44 -4 0 -15 -2 -25 -4 -13 -2 -17 1
-13 11 6 17 -13 64 -27 64 -5 0 -7 -20 -5 -45 2 -25 -1 -46 -7 -48 -5 -2 2
-19 16 -38 19 -24 26 -44 24 -68 -3 -33 -20 -60 -31 -48 -6 6 -25 85 -28 122
-2 16 -48 122 -64 145 -5 8 -22 -24 -22 -43 0 -9 11 -27 24 -38 21 -18 23 -24
11 -35 -16 -16 -55 -19 -55 -4 0 6 -9 10 -19 10 -21 0 -31 19 -31 56 0 15 -4
23 -11 19 -6 -4 -8 -27 -5 -57 5 -47 4 -49 -17 -46 -17 2 -21 9 -19 26 2 13
-4 34 -13 48 -9 13 -13 29 -10 34 3 6 -1 10 -9 10 -21 0 -29 -16 -18 -37 23
-45 23 -72 -1 -88 -22 -14 -28 -14 -61 0 -20 9 -34 20 -30 26 11 19 -6 79 -23
79 -12 0 -15 -8 -11 -38 9 -62 -21 -86 -75 -61 -16 7 -27 25 -35 55 -15 56
-36 50 -27 -7 6 -37 5 -39 -18 -39 -27 0 -30 6 -42 72 -10 60 -29 60 -21 1 5
-41 3 -52 -10 -57 -25 -10 -52 11 -59 46 -10 52 -26 88 -40 88 -22 0 -24 -12
-4 -47 15 -27 17 -38 8 -49 -25 -30 -89 -1 -89 40 0 26 24 79 53 116 26 34 49
92 39 99 -8 6 -42 105 -42 122 0 5 7 9 15 9 20 0 19 15 -1 35 -22 22 -4 65 27
65 22 0 22 0 3 -21 -17 -19 -18 -21 -1 -30 13 -8 15 -14 7 -29 -13 -24 -13
-40 0 -40 5 0 15 19 22 42 16 53 63 100 116 116 50 15 109 80 118 130 25 132
-57 296 -154 309 -88 12 -359 -92 -399 -153 -21 -33 -30 -168 -13 -218 20 -62
92 -113 162 -115 27 -1 48 -25 48 -53 0 -8 -15 -20 -34 -26 -39 -14 -96 -74
-96 -100 0 -25 -20 -42 -47 -42 -13 0 -26 -6 -29 -14 -10 -27 -213 113 -240
166 -19 36 -12 46 61 87 65 37 74 59 84 206 5 68 14 125 25 150 72 164 60 340
-33 481 -39 58 -58 73 -121 89 -28 7 -46 18 -48 28 -5 24 69 172 115 231 21
27 57 65 81 84 41 34 43 34 37 11 -3 -14 0 -32 8 -43 13 -18 15 -15 32 40 16
52 45 93 68 94 4 0 1 -13 -8 -29 -10 -20 -12 -32 -4 -36 13 -8 16 -5 45 42 13
21 24 33 24 28 0 -6 -15 -72 -34 -147 -32 -126 -36 -178 -15 -178 5 0 18 22
30 49 11 27 29 57 40 67 10 9 19 21 19 26 0 13 -17 9 -35 -8 -9 -9 -18 -14
-20 -12 -7 7 29 158 37 158 5 0 8 -10 8 -22 0 -13 5 -30 10 -38 9 -13 11 -13
20 0 5 8 10 31 11 50 1 31 3 28 13 -20 8 -36 16 -55 26 -55 8 0 16 8 18 18 2
9 -1 17 -6 17 -6 0 -13 27 -17 60 -8 66 -24 78 -45 33 l-13 -28 -12 35 -11 34
55 26 c51 24 243 89 315 106 l30 7 -23 -24 c-30 -33 -8 -37 38 -6 20 14 46 27
57 30 37 9 164 7 164 -3z m935 -587 c3 -27 14 -95 25 -153 18 -95 26 -194 13
-162 -2 6 -9 12 -14 12 -12 0 -12 -47 1 -55 11 -7 14 -85 4 -85 -4 0 -13 8
-20 17 -18 25 -30 8 -16 -22 17 -37 15 -74 -8 -141 -13 -38 -24 -108 -31 -194
-6 -74 -11 -139 -13 -145 -1 -5 -17 12 -34 40 -30 49 -31 52 -29 163 2 86 5
111 15 107 14 -5 40 41 29 51 -4 4 -13 1 -21 -5 -23 -19 -55 4 -78 55 -21 49
-37 184 -21 184 9 0 33 42 33 56 0 3 -9 3 -20 -1 -19 -6 -19 -5 -4 45 8 29 19
62 24 73 8 21 9 20 9 -5 1 -17 7 -28 15 -28 7 0 20 -7 27 -16 13 -16 108 -74
122 -74 19 0 4 20 -30 41 -64 39 -103 73 -103 91 0 9 -5 20 -11 23 -6 4 -8 14
-4 24 10 28 69 121 76 121 4 0 10 -11 13 -25 10 -39 26 -29 26 15 0 56 17 50
25 -7z m-1950 -57 c25 -11 40 -27 57 -65 13 -28 28 -49 35 -46 6 2 14 -3 17
-11 3 -8 4 -14 2 -14 -16 0 -105 45 -123 62 -30 28 -43 14 -15 -15 31 -32 109
-70 133 -64 42 11 67 -103 38 -175 l-11 -28 -20 26 c-12 14 -32 30 -45 35 -20
7 -23 12 -14 23 19 22 -2 26 -29 6 -21 -16 -22 -20 -8 -25 9 -4 35 -28 57 -55
36 -43 42 -57 47 -110 3 -34 0 -87 -7 -118 -6 -31 -11 -81 -10 -111 1 -34 -4
-58 -12 -63 -9 -6 -9 -10 2 -17 28 -18 -30 -124 -58 -107 -9 6 -51 130 -51
150 0 4 9 4 20 1 30 -10 24 12 -13 49 -18 17 -33 40 -34 51 -1 11 -5 49 -8 85
-9 92 -1 99 75 71 34 -13 64 -20 67 -17 8 7 -56 44 -89 51 -15 4 -28 13 -28
21 0 19 -19 18 -27 -2 -10 -26 -23 5 -23 54 0 47 6 50 41 24 33 -25 79 -44 79
-32 0 10 -75 57 -100 62 -22 4 -28 32 -29 127 -1 83 22 191 41 191 5 0 24 -6
43 -14z m416 -1098 c-20 -57 -14 -88 19 -102 22 -9 27 -15 19 -23 -9 -9 -20
-3 -44 23 -23 24 -41 34 -63 34 l-31 0 25 38 c29 44 78 86 82 72 2 -6 -1 -25
-7 -42z m1409 -71 c0 -23 -11 -65 -24 -93 -24 -52 -73 -101 -88 -86 -7 7 3 95
17 159 6 24 73 76 87 67 4 -3 8 -24 8 -47z m-1709 20 c45 -37 62 -175 21 -160
-42 15 -72 73 -72 139 0 50 12 54 51 21z m364 -24 c-28 -20 -36 -5 -12 20 17
17 23 19 26 8 2 -8 -5 -20 -14 -28z m1189 -36 c15 -11 16 -21 7 -97 -6 -46
-11 -154 -11 -239 0 -206 -19 -293 -70 -326 -19 -13 -66 -48 -105 -79 -38 -31
-90 -69 -115 -83 -25 -14 -62 -41 -83 -59 -21 -17 -71 -48 -111 -69 -71 -36
-75 -37 -157 -31 -46 2 -108 5 -138 5 l-53 1 41 41 c25 25 45 57 52 83 6 22
15 49 20 58 5 10 9 25 9 33 0 42 -56 -18 -65 -71 -9 -46 -22 -74 -35 -74 -5 0
-21 -12 -35 -26 -21 -21 -32 -25 -58 -20 -49 10 -151 63 -213 112 -32 24 -61
44 -65 44 -5 0 -48 33 -96 73 -49 41 -107 86 -130 101 -47 32 -77 71 -67 88
13 21 15 70 16 306 l0 232 39 0 c32 0 41 -4 48 -22 12 -33 31 -115 31 -136 0
-10 16 -44 35 -76 28 -47 37 -75 45 -144 12 -92 20 -110 70 -160 55 -56 235
-96 397 -89 64 3 129 1 145 -4 38 -10 284 23 326 45 41 21 79 70 92 116 6 22
14 40 18 40 4 0 8 30 8 66 2 96 31 187 46 143 7 -20 88 151 88 185 0 18 3 36
7 39 11 11 48 8 67 -6z m-1174 -272 c0 -25 -2 -45 -4 -45 -15 0 -36 36 -36 61
0 22 5 29 20 29 17 0 20 -7 20 -45z m908 22 c2 -10 -4 -30 -14 -45 l-18 -27
-12 40 c-6 22 -9 44 -7 48 9 15 48 2 51 -16z m-848 -6 c11 -22 13 -64 4 -74
-13 -13 -44 14 -44 38 0 52 21 71 40 36z m783 -47 c1 -22 -3 -39 -10 -41 -8
-3 -13 4 -13 19 0 13 -7 33 -15 45 -14 20 -14 23 2 32 22 12 33 -4 36 -55z
m-713 -10 c0 -28 -4 -35 -17 -32 -13 2 -19 15 -21 46 -3 41 -2 43 17 32 15 -8
21 -21 21 -46z m56 0 c7 -46 -4 -72 -25 -60 -17 11 -14 106 3 106 10 0 17 -16
22 -46z m449 26 c10 -11 19 -32 21 -47 1 -16 5 -38 8 -50 3 -15 0 -23 -9 -23
-7 0 -20 -2 -27 -5 -16 -7 -38 52 -38 102 0 47 16 55 45 23z m75 1 c13 -26 14
-122 0 -101 -5 8 -10 25 -10 36 0 12 -9 33 -20 46 -10 14 -16 28 -13 32 12 12
32 6 43 -13z m-425 -31 c19 -37 20 -100 1 -100 -7 0 -27 5 -45 11 -25 9 -31
16 -31 39 0 77 45 107 75 50z m134 -4 c12 -18 21 -47 21 -65 0 -25 -4 -31 -22
-31 -13 0 -40 -3 -60 -6 l-38 -7 0 37 c0 98 57 140 99 72z m134 7 c8 -16 17
-45 21 -65 l7 -38 -61 0 c-54 0 -61 2 -56 18 2 9 8 33 12 52 12 60 54 78 77
33z m362 -43 c-4 -6 -2 -17 5 -25 13 -16 10 -70 -5 -70 -5 0 -11 17 -13 39 -3
38 2 66 13 66 4 0 3 -5 0 -10z m-935 -62 c0 -73 -14 -67 -24 10 -6 43 -4 52 9
52 12 0 15 -13 15 -62z m76 -23 c0 -48 -3 -66 -14 -70 -21 -8 -25 -1 -30 60
-5 66 1 85 25 79 15 -4 18 -16 19 -69z m814 27 l0 -26 -22 22 c-19 19 -21 24
-8 32 20 12 30 3 30 -28z m-760 -43 c0 -44 -3 -60 -12 -57 -24 8 -22 118 2
118 6 0 10 -27 10 -61z m738 -5 c8 -19 20 -34 25 -34 5 0 4 -7 -3 -15 -16 -20
-48 -3 -56 30 -7 28 -34 56 -34 35 0 -7 5 -30 12 -51 12 -43 9 -53 -15 -43 -8
3 -18 23 -22 45 -4 21 -10 37 -15 34 -4 -3 -14 2 -21 11 -11 14 -10 16 6 13
11 -1 31 2 45 8 36 15 60 5 78 -33z m-676 31 c30 -12 0 -103 -34 -105 -9 0
-10 56 -2 88 7 23 13 26 36 17z m543 -46 c14 -18 24 -38 21 -46 -3 -8 -1 -11
4 -8 12 7 12 3 4 -19 -10 -27 -33 -18 -49 21 -8 20 -13 38 -10 41 2 2 0 13 -6
23 -16 30 6 22 36 -12z m-456 4 c15 -28 -34 -107 -51 -81 -9 15 -10 60 -2 82
8 21 41 20 53 -1z m171 -8 c6 -8 9 -24 5 -37 -9 -32 -27 -68 -35 -68 -8 0 -29
102 -23 113 7 12 40 8 53 -8z m165 -41 c0 -50 -11 -63 -34 -38 -13 13 -30 81
-23 89 3 3 18 5 32 3 23 -3 25 -7 25 -54z m72 4 c6 -29 8 -56 5 -60 -4 -4 -19
10 -34 31 -25 35 -26 40 -12 59 22 32 29 27 41 -30z m-154 -53 c-2 -6 -12 -11
-23 -12 -15 -1 -21 7 -26 34 -6 31 -3 39 17 56 l24 19 6 -43 c3 -24 4 -49 2
-54z m-160 65 c3 -11 1 -23 -4 -26 -14 -8 -11 -26 4 -19 6 4 5 0 -3 -7 -8 -8
-21 -20 -28 -28 -7 -8 -12 -10 -11 -5 2 6 -3 27 -10 49 -11 32 -11 40 0 47 24
15 46 10 52 -11z m-163 -70 c0 -5 -4 -10 -10 -10 -5 0 -10 5 -10 10 0 6 5 10
10 10 6 0 10 -4 10 -10z"/>
<path d="M899 2805 c-15 -8 -29 -21 -32 -29 -3 -8 -23 -26 -44 -40 -21 -14
-49 -34 -63 -46 -23 -19 -24 -21 -7 -31 26 -15 70 -107 63 -134 -3 -13 -21
-29 -46 -40 -22 -10 -47 -28 -55 -41 -10 -16 -25 -24 -45 -24 -31 0 -50 -22
-50 -59 0 -16 -6 -21 -25 -21 -22 0 -38 -19 -17 -21 4 0 15 -2 24 -4 19 -4 44
21 50 50 6 32 37 30 69 -5 48 -51 48 -75 2 -123 -60 -63 -83 -101 -76 -125 3
-15 0 -24 -11 -28 -10 -4 -16 -18 -16 -39 0 -19 -5 -37 -10 -40 -6 -4 -8 -14
-5 -24 3 -12 -1 -17 -16 -18 -12 -1 -26 -6 -31 -11 -8 -8 18 -112 28 -112 16
0 44 23 44 37 0 13 -3 13 -16 2 -13 -10 -17 -10 -24 2 -7 10 -2 17 15 27 32
16 32 26 0 20 -34 -7 -32 8 4 27 29 15 30 15 41 -20 14 -44 32 -37 19 8 -7 26
-6 34 8 44 27 20 8 26 -27 8 -31 -16 -31 -16 -21 4 6 11 11 28 11 39 0 10 9
27 20 37 11 10 20 28 20 39 0 25 26 59 57 75 12 6 28 23 35 38 7 15 29 38 48
51 39 26 50 43 23 36 -13 -4 -26 7 -45 38 -16 23 -28 47 -28 54 0 7 22 26 49
43 35 23 50 40 55 61 4 21 11 30 26 30 11 0 20 -7 20 -16 0 -11 8 -14 27 -12
31 4 44 28 15 28 -11 0 -25 7 -33 16 -7 9 -22 14 -36 11 -18 -3 -25 1 -29 17
-3 12 -19 35 -35 50 -33 32 -34 55 -4 71 44 23 75 48 75 61 0 8 11 20 25 26
26 12 34 28 13 28 -7 -1 -25 -7 -39 -15z"/>
<path d="M1113 2673 c-16 -57 -7 -181 11 -162 2 2 7 46 11 97 5 65 4 92 -4 92
-6 0 -14 -12 -18 -27z"/>
<path d="M343 2522 c-40 -21 -42 -32 -5 -32 36 0 46 -20 72 -148 43 -207 52
-241 67 -247 21 -7 30 2 15 17 -8 8 -12 48 -12 109 0 93 -28 229 -48 229 -11
0 -46 63 -43 78 3 16 -7 14 -46 -6z"/>
<path d="M1480 2516 c0 -8 7 -16 15 -20 12 -4 13 -11 4 -33 -6 -15 -18 -36
-27 -46 -16 -17 -14 -20 23 -53 39 -33 40 -36 43 -107 2 -39 3 -90 3 -112 0
-22 5 -86 10 -142 10 -102 10 -102 -16 -131 -25 -28 -29 -29 -94 -24 -60 4
-71 2 -89 -16 -26 -26 -41 -77 -49 -162 -5 -55 -2 -73 16 -108 23 -45 95 -124
145 -158 28 -20 28 -22 30 -122 2 -100 2 -103 -26 -129 -35 -34 -38 -83 -6
-112 20 -19 20 -22 5 -39 -32 -36 -3 -33 52 4 2 2 -6 18 -18 37 -29 47 -27 57
19 102 38 37 40 43 40 97 0 53 2 59 28 72 15 7 41 11 59 9 54 -9 98 5 141 45
79 71 96 181 46 293 -27 60 -51 83 -136 132 -38 22 -49 35 -62 74 -23 72 -36
158 -36 237 0 39 -7 89 -14 111 -9 23 -12 57 -9 81 5 38 3 43 -37 76 -41 36
-41 36 -26 67 21 40 20 53 -4 74 -24 21 -30 21 -30 3z"/>
<path d="M1204 2486 c-3 -9 -12 -16 -20 -16 -18 0 -18 -14 1 -30 11 -9 15 -35
15 -104 0 -82 -3 -95 -26 -130 -16 -24 -23 -41 -17 -47 11 -11 74 67 123 154
17 31 36 57 41 57 22 0 5 17 -41 43 -38 22 -50 34 -50 52 0 29 -18 43 -26 21z
m63 -104 l22 -17 -30 -33 -29 -32 0 50 c0 55 4 58 37 32z"/>
<path d="M1035 2473 c-22 -7 -86 -27 -142 -44 -57 -18 -103 -36 -103 -40 0
-13 49 -11 101 5 l47 14 6 -36 c3 -20 6 -76 6 -123 0 -59 4 -91 15 -105 13
-17 14 -3 15 128 l0 147 41 12 c22 7 45 21 50 32 14 25 11 25 -36 10z"/>
<path d="M2027 2463 c-3 -16 -11 -47 -18 -70 -7 -23 -10 -46 -6 -49 11 -11 35
27 42 66 3 19 9 45 12 58 4 15 1 22 -10 22 -8 0 -17 -12 -20 -27z"/>
<path d="M1843 2448 c0 -18 -7 -51 -16 -73 -18 -44 -23 -165 -7 -165 6 0 10
13 10 30 0 16 9 64 21 105 21 77 22 126 3 132 -6 2 -11 -10 -11 -29z"/>
<path d="M1103 2455 c-6 -11 -13 -50 -15 -87 -5 -55 -3 -70 12 -83 9 -8 20
-12 23 -8 9 8 8 107 -2 158 -6 36 -8 38 -18 20z"/>
<path d="M1076 2223 c-2 -2 0 -19 5 -36 5 -18 9 -74 9 -124 0 -51 4 -93 8 -93
5 0 17 8 26 19 13 15 16 29 11 67 -4 27 -8 67 -9 89 -5 69 -6 73 -25 78 -11 3
-22 3 -25 0z"/>
<path d="M1316 2215 c-3 -10 -19 -15 -47 -15 -45 0 -68 -19 -69 -57 0 -34 15
-35 39 -3 14 19 31 30 46 30 28 0 69 35 60 50 -9 15 -22 12 -29 -5z"/>
<path d="M1368 2213 c-29 -33 -38 -61 -44 -135 -4 -40 -11 -81 -16 -90 -9 -19
-1 -23 26 -12 12 5 16 21 16 75 0 38 4 69 9 69 9 0 16 -36 24 -122 l3 -38 -47
0 c-59 0 -79 -7 -79 -29 0 -28 8 -30 48 -9 20 10 48 17 62 14 14 -2 35 3 50
14 14 10 34 19 45 21 30 6 33 73 5 111 -18 25 -20 33 -10 62 16 50 -3 86 -45
86 -18 0 -39 -8 -47 -17z m56 -51 c-1 -17 -9 -41 -18 -53 l-16 -23 0 32 c0 17
-4 32 -10 32 -15 0 -12 17 6 35 23 23 39 13 38 -23z m11 -92 c-3 -5 -13 -10
-21 -10 -8 0 -12 5 -9 10 3 6 13 10 21 10 8 0 12 -4 9 -10z m25 -24 c0 -12
-49 -30 -58 -21 -3 2 34 25 56 34 1 1 2 -5 2 -13z m-25 -50 c-16 -7 -32 -11
-35 -9 -8 7 24 23 45 22 15 0 13 -3 -10 -13z"/>
<path d="M1282 2148 c-5 -7 -13 -24 -17 -38 -4 -14 -17 -35 -28 -47 -26 -29
-15 -41 18 -19 29 19 31 10 11 -39 -16 -39 -7 -54 17 -27 8 10 17 44 19 82 3
36 8 73 13 83 9 20 -17 24 -33 5z"/>
<path d="M870 2028 c10 -23 22 -44 27 -45 13 -4 47 26 40 34 -4 4 -13 1 -19
-5 -10 -10 -16 -5 -28 20 -24 50 -43 47 -20 -4z"/>
<path d="M1838 2035 c-12 -28 -6 -63 31 -170 11 -33 27 -86 36 -117 18 -65 39
-80 30 -20 -6 34 -18 81 -61 224 -9 32 -14 69 -12 83 7 32 -9 32 -24 0z"/>
<path d="M795 2033 c4 -10 11 -33 17 -50 5 -18 14 -33 19 -33 20 0 49 21 43
31 -4 6 -11 6 -20 -2 -11 -9 -15 -7 -20 7 -14 45 -24 64 -35 64 -7 0 -8 -7 -4
-17z"/>
<path d="M721 1993 c-6 -21 -11 -51 -11 -67 l0 -28 31 33 c30 32 32 33 45 14
20 -27 29 -11 14 25 -12 28 -44 60 -62 60 -4 0 -12 -17 -17 -37z m43 -2 c3 -5
-1 -14 -9 -21 -13 -10 -15 -9 -15 9 0 21 14 28 24 12z"/>
<path d="M508 1915 c-10 -23 -12 -23 -40 -9 -17 9 -32 14 -34 11 -2 -2 -1 -28
3 -57 10 -64 30 -80 25 -19 -4 36 -2 41 12 36 22 -9 46 2 47 22 0 9 7 -1 16
-21 8 -21 20 -38 25 -38 5 0 7 6 4 13 -2 6 -10 29 -17 50 -14 43 -25 47 -41
12z"/>
<path d="M1306 1869 c-7 -44 0 -64 14 -39 30 53 35 55 119 55 45 0 81 3 81 6
0 12 -45 19 -126 19 l-81 0 -7 -41z"/>
<path d="M795 1895 c-5 -2 -27 -6 -47 -10 -58 -9 -45 -25 20 -25 51 0 94 12
82 23 -8 8 -45 15 -55 12z"/>
<path d="M1132 1870 c11 -17 9 -23 -15 -48 -32 -33 -34 -65 -7 -99 11 -14 20
-37 20 -51 0 -32 -34 -105 -72 -154 -29 -37 -46 -88 -30 -88 5 0 14 11 20 24
6 13 30 49 53 79 l43 56 35 -52 c44 -66 50 -48 13 40 -16 37 -32 81 -36 97 -4
17 -16 42 -27 57 -23 32 -25 65 -5 72 8 3 22 17 32 32 13 20 14 28 4 40 -7 8
-19 15 -26 15 -12 0 -12 -4 -2 -20z"/>
<path d="M1720 1865 c0 -23 65 -90 78 -81 19 12 15 20 -33 59 -31 27 -45 33
-45 22z"/>
<path d="M413 1768 c-32 -42 -59 -178 -35 -178 8 0 36 91 37 117 0 6 7 19 16
30 16 17 15 43 -1 43 -4 0 -12 -6 -17 -12z"/>
<path d="M1000 1755 c0 -2 4 -14 9 -27 6 -13 13 -44 16 -70 3 -27 11 -48 17
-48 16 0 4 130 -13 141 -15 9 -29 12 -29 4z"/>
<path d="M1100 1446 c-17 -35 -37 -69 -45 -76 -8 -7 -15 -18 -15 -24 0 -6 -18
-45 -40 -86 -34 -64 -40 -84 -40 -137 0 -55 3 -64 26 -82 33 -26 109 -29 135
-5 17 15 20 15 46 -3 35 -23 85 -29 124 -13 21 9 32 23 41 51 22 75 -5 141
-163 402 -13 20 -27 37 -31 37 -4 0 -22 -29 -38 -64z"/>
<path d="M1260 1434 c0 -21 78 -104 98 -104 22 0 13 15 -43 70 -44 43 -55 50
-55 34z"/>
<path d="M404 1404 c9 -34 54 -94 71 -94 8 0 20 -3 29 -6 11 -4 16 -1 16 10 0
9 -7 16 -14 16 -17 0 -73 57 -82 83 -9 28 -27 20 -20 -9z"/>
<path d="M1987 1403 c-3 -5 6 -26 21 -47 26 -37 26 -38 9 -68 -18 -31 -22 -58
-9 -58 14 0 42 58 42 87 -1 30 -53 103 -63 86z"/>
<path d="M933 1378 c-22 -25 -54 -122 -58 -178 -2 -19 -4 -38 -4 -41 -1 -3
-14 -23 -31 -44 -16 -20 -27 -42 -23 -48 10 -16 72 65 78 103 4 19 15 53 26
76 10 23 19 57 19 76 0 20 7 41 15 48 16 14 20 30 7 30 -5 0 -18 -10 -29 -22z"/>
<path d="M274 1328 l-41 -43 41 -40 c24 -24 48 -39 59 -37 24 5 21 16 -13 50
-37 38 -37 46 0 73 28 22 31 39 6 39 -6 0 -30 -19 -52 -42z"/>
<path d="M1820 1340 c0 -5 -16 -20 -35 -32 -36 -24 -41 -45 -9 -40 36 6 86 82
54 82 -5 0 -10 -4 -10 -10z"/>
<path d="M820 1282 c-31 -15 -36 -22 -41 -67 -3 -27 -5 -52 -3 -54 8 -10 32
22 42 58 9 29 19 41 38 45 14 4 24 12 22 18 -7 19 -21 19 -58 0z"/>
<path d="M1612 1278 c3 -7 22 -14 42 -16 28 -2 37 0 34 10 -3 7 -22 14 -42 16
-28 2 -37 0 -34 -10z"/>
<path d="M1340 1198 c0 -20 47 -167 60 -188 17 -27 22 -2 11 53 -15 72 -71
178 -71 135z"/>
<path d="M890 1062 c0 -5 7 -17 15 -28 8 -10 15 -34 15 -51 0 -45 17 -42 23 5
5 41 -14 82 -38 82 -8 0 -15 -4 -15 -8z"/>
<path d="M1343 980 c-44 -20 -64 -40 -38 -40 21 0 81 26 89 38 12 20 -10 21
-51 2z"/>
<path d="M1010 965 c0 -8 8 -15 19 -15 10 0 33 -3 50 -6 45 -9 38 9 -9 24 -51
16 -60 15 -60 -3z"/>
<path d="M2076 2281 c-7 -11 40 -51 61 -51 22 0 11 19 -24 41 -18 11 -34 16
-37 10z"/>
<path d="M2060 2212 c0 -10 56 -52 70 -52 19 0 10 15 -25 38 -38 24 -45 26
-45 14z"/>
<path d="M1990 2072 c0 -23 109 -102 140 -102 21 0 9 17 -24 32 -18 9 -49 30
-69 47 -35 32 -47 37 -47 23z"/>
<path d="M1960 1952 c0 -15 138 -88 148 -78 9 9 -7 21 -74 55 -65 33 -74 36
-74 23z"/>
<path d="M2000 1853 c0 -12 67 -53 85 -53 28 0 15 16 -30 38 -50 24 -55 26
-55 15z"/>
<path d="M130 2110 c0 -5 16 -17 35 -25 19 -8 51 -22 70 -30 63 -27 37 4 -30
35 -71 33 -75 34 -75 20z"/>
<path d="M170 1752 c0 -9 81 -42 102 -42 20 0 5 17 -24 27 -63 21 -78 24 -78
15z"/>
<path d="M204 1645 c11 -8 29 -15 39 -15 16 0 17 3 7 15 -7 8 -24 15 -39 15
-25 -1 -25 -1 -7 -15z"/>
<path d="M1957 1025 c-26 -45 -22 -69 5 -37 19 21 38 57 38 71 0 24 -20 8 -43
-34z"/>
<path d="M300 1096 c0 -20 5 -36 10 -36 6 0 10 13 10 29 0 17 -4 33 -10 36 -6
4 -10 -8 -10 -29z"/>
<path d="M454 960 c4 -14 12 -45 17 -69 5 -24 20 -63 34 -87 14 -23 25 -56 25
-73 0 -17 5 -31 10 -31 18 0 11 72 -11 118 -12 25 -22 58 -23 75 -1 19 -12 42
-30 61 -28 30 -29 30 -22 6z"/>
<path d="M1823 963 c-3 -10 -20 -37 -36 -60 -17 -24 -38 -73 -48 -110 -10 -38
-21 -79 -24 -93 -7 -24 -6 -24 19 5 14 17 25 43 26 58 0 35 24 92 55 133 28
37 43 84 26 84 -6 0 -14 -8 -18 -17z"/>
<path d="M444 664 c-16 -39 -15 -105 2 -111 6 -2 10 16 10 46 0 33 6 57 17 69
21 23 21 32 1 32 -8 0 -22 -16 -30 -36z"/>
<path d="M1680 612 c0 -10 -11 -40 -24 -65 -24 -48 -21 -70 6 -39 35 39 54
122 28 122 -5 0 -10 -8 -10 -18z"/>
<path d="M1787 576 c-3 -8 -3 -22 -1 -33 3 -11 -7 -35 -24 -58 -15 -22 -31
-48 -35 -57 -3 -10 -15 -18 -26 -18 -11 0 -33 -11 -48 -25 -31 -27 -13 -35 21
-10 11 8 27 15 36 15 14 0 91 80 114 118 8 14 -11 82 -24 82 -4 0 -10 -6 -13
-14z"/>
<path d="M497 516 c-7 -18 1 -26 28 -26 11 0 39 -17 61 -37 175 -166 161 -156
199 -149 39 8 48 26 13 26 -33 0 -81 32 -114 76 -66 86 -98 113 -140 119 -31
4 -43 2 -47 -9z"/>
<path d="M1048 413 c7 -3 16 -2 19 1 4 3 -2 6 -13 5 -11 0 -14 -3 -6 -6z"/>
<path d="M1295 400 c-3 -4 6 -15 20 -24 14 -9 25 -21 25 -27 0 -20 81 -119 97
-119 14 0 13 4 -5 23 -12 13 -22 28 -22 34 0 6 -7 16 -15 23 -8 7 -15 22 -15
35 0 12 -8 29 -17 37 -22 18 -61 29 -68 18z"/>
<path d="M1035 390 c-3 -5 1 -20 9 -31 10 -16 12 -28 5 -46 -5 -13 -9 -35 -9
-49 0 -14 -7 -27 -15 -31 -18 -6 -50 -63 -36 -63 17 0 71 71 71 94 0 13 7 29
15 36 19 16 19 45 -1 75 -17 27 -29 31 -39 15z"/>
<path d="M1127 373 c-13 -12 -7 -43 8 -43 9 0 15 9 15 25 0 24 -10 32 -23 18z"/>
<path d="M1230 268 c0 -49 3 -55 38 -83 75 -61 106 -67 114 -21 2 14 -7 22
-37 33 -42 14 -93 57 -92 76 1 30 -4 47 -13 47 -5 0 -10 -24 -10 -52z"/>
<path d="M1069 738 c0 -2 -1 -17 -2 -34 -1 -22 2 -30 11 -26 8 3 10 11 6 21
-3 9 -7 22 -7 29 0 10 -5 17 -8 10z"/>
</g>
</svg>
