<?xml version="1.0" standalone="no"?>
<!DOCTYPE svg PUBLIC "-//W3C//DTD SVG 20010904//EN"
 "http://www.w3.org/TR/2001/REC-SVG-20010904/DTD/svg10.dtd">
<svg version="1.0" xmlns="http://www.w3.org/2000/svg"
 width="920.000000pt" height="920.000000pt" viewBox="0 0 920.000000 920.000000"
 preserveAspectRatio="xMidYMid meet">

<g transform="translate(0.000000,920.000000) scale(0.100000,-0.100000)"
fill="#000000" stroke="none">
<path d="M3660 8623 c-310 -32 -596 -238 -712 -515 -57 -135 -69 -206 -75
-425 l-6 -203 -858 0 -859 0 0 -290 0 -290 285 0 285 0 0 -2457 c0 -1583 4
-2483 10 -2528 16 -107 37 -183 76 -264 121 -256 370 -446 644 -490 90 -15
3643 -15 3726 0 369 65 648 344 713 713 8 41 11 851 11 2543 l0 2483 290 0
290 0 -2 288 -3 287 -861 3 -862 2 -5 218 c-5 233 -14 284 -72 417 -77 172
-224 327 -400 417 -181 93 -231 98 -970 96 -335 -1 -626 -3 -645 -5z m1345
-596 c56 -25 113 -83 141 -142 22 -47 24 -62 24 -227 l0 -178 -860 0 -860 0 0
158 c0 177 11 233 59 300 32 43 102 90 154 103 18 4 318 7 667 6 588 -2 638
-3 675 -20z m1315 -3604 l0 -2478 -29 -62 c-33 -69 -96 -124 -166 -143 -28 -8
-557 -10 -1835 -8 -1695 3 -1797 4 -1827 21 -55 30 -103 78 -131 131 l-27 51
-3 2483 -2 2482 2010 0 2010 0 0 -2477z"/>
<path d="M2877 6323 c-4 -3 -7 -910 -7 -2015 l0 -2008 290 0 290 0 0 2015 0
2015 -283 0 c-156 0 -287 -3 -290 -7z"/>
<path d="M4027 6323 c-4 -3 -7 -910 -7 -2015 l0 -2008 290 0 290 0 0 2015 0
2015 -283 0 c-156 0 -287 -3 -290 -7z"/>
<path d="M5177 6323 c-4 -3 -7 -910 -7 -2015 l0 -2008 290 0 290 0 0 2015 0
2015 -283 0 c-156 0 -287 -3 -290 -7z"/>
</g>
</svg>
